<svg xmlns="http://www.w3.org/2000/svg" width="512" height="512" viewBox="0 0 512 512">
  <defs><linearGradient id="bg" x1="0" y1="0" x2="1" y2="1"><stop offset="0" stop-color="#0a8f56"/><stop offset="1" stop-color="#04341f"/></linearGradient></defs>
  <rect width="512" height="512" fill="url(#bg)"/>
  <g fill="#FCD116">
    <rect x="242" y="120" width="28" height="30" rx="14"/>
    <path d="M256 146c-54 0-92 40-92 98 0 54-18 84-40 106-8 8-2 22 9 22h246c11 0 17-14 9-22-22-22-40-52-40-106 0-58-38-98-92-98z"/>
    <path d="M222 374a34 34 0 0 0 68 0z"/>
  </g>
</svg>
